# xmcd
#
# Track frame offsets:
#	150
#	16999
#	35744
#	84167
#	107428
#	140796
#	172509
#	211353
#	252113
#	272208
#
# Disc length: 4034 seconds
#
# Revision: 0
# Processed by: cddbd v1.5.2PL0 Copyright (c) Steve Scherf et al.
# Submitted via: EasyCDDAExtractor 16.0.1.1
#
DISCID=7d0fc00a
DTITLE=Albert King - Live:_Charly Blues Masterworks  Vol  18
DYEAR=1977
DGENRE=Blues
TTITLE0=Watermelon Man
TTITLE1=Don't Burn Down The Bridge
TTITLE2=Blues At Sunrise
TTITLE3=That's What The Blues Is All About
TTITLE4=Stormy Monday
TTITLE5=Kansas City
TTITLE6=I'm Gonna Call You As Soon As The Sun Goes
TTITLE7=As The Years Go Passing By
TTITLE8=Overall Junction
TTITLE9=I'll Play The Blues For You
EXTD=
EXTT0=
EXTT1=
EXTT2=
EXTT3=
EXTT4=
EXTT5=
EXTT6=
EXTT7=
EXTT8=
EXTT9=
PLAYORDER=
